# xmcd
#
# Track frame offsets:
#	150
#	21835
#	41690
#	54410
#	75530
#	94045
#	104480
#	123540
#	136905
#	149420
#	166430
#	183085
#	196795
#	211852
#	229110
#	242837
#
# Disc length: 3380 seconds
#
# Revision: 1
# Processed by: cddbd v1.4PL0 Copyright (c) Steve Scherf et al.
# Submitted via: audiograbber 1.80.04
#
DISCID=d60d3210
DTITLE=Jonny Hill - In Liebe Jonny Hill
DYEAR=1993
DGENRE=
TTITLE0=Ruf Teddybär-Eins-Vier
TTITLE1=Dein erster Brief
TTITLE2=Green Green Grass of Home
TTITLE3=Papillon
TTITLE4=Der Haus-Song
TTITLE5=Heute Nach da brauch` ich dich
TTITLE6=Kinder, alte Hunde und junger herber Wein
TTITLE7=Ich wollte dir noch soviel sagen
TTITLE8=500 Meilen von zu Haus
TTITLE9=Wo der Mond versinkt
TTITLE10=Rosen für Mama
TTITLE11=Ich lösch das Licht
TTITLE12=Am besten etwas mehr als alles
TTITLE13=Damals war sie noch schön
TTITLE14=Vaya Con Dios
TTITLE15=Adios Amigo
EXTD=
EXTT0=4:47
EXTT1=4:23
EXTT2=2:48
EXTT3=4:40
EXTT4=4:05
EXTT5=2:17
EXTT6=4:12
EXTT7=2:57
EXTT8=2:45
EXTT9=3:45
EXTT10=3:40
EXTT11=3:01
EXTT12=3:19
EXTT13=3:49
EXTT14=3:00
EXTT15=2:23
PLAYORDER=
